C:\GBW_MyPrograms\KinderuniversiteitApp\Resultaten\Ellis_v10102025\Reus\Reus_v4.mot
version=1
nRows=14
nColumns=29
inDegrees=yes
endheader
                time	         pelvis_tilt	           pelvis_tx	           pelvis_ty	       hip_flexion_l	       hip_flexion_r	        knee_angle_l	        knee_angle_r	       ankle_angle_l	       ankle_angle_r	    lumbar_extension	hamstrings_r/activation	bifemsh_r/activation	glut_max_r/activation	iliopsoas_r/activation	rect_fem_r/activation	  vasti_r/activation	gastroc_r/activation	 soleus_r/activation	tib_ant_r/activation	hamstrings_l/activation	bifemsh_l/activation	glut_max_l/activation	iliopsoas_l/activation	rect_fem_l/activation	  vasti_l/activation	gastroc_l/activation	 soleus_l/activation	tib_ant_l/activation	
          0.00000000	         -8.59710052	          0.00000000	          0.76937003	         21.35450367	         21.00631014	        -28.46235970	        -28.38231143	          4.66466697	          3.49762998	         -8.90120127	          0.38760987	          0.48149942	          0.46837189	          0.46885585	          0.52735861	          0.44516286	          0.45950744	          0.44206799	          0.41064876	          0.51837910	          0.45409214	          0.54931371	          0.37052871	          0.43299487	          0.49633902	          0.48474164	          0.44866760	          0.41911298	
          0.00200000	         -8.57031546	          0.05416691	          0.76911155	         22.37391777	         20.49513038	        -27.07299976	        -27.68713820	          4.86781572	          3.60778495	         -8.90025467	          0.37366650	          0.47047251	          0.47708864	          0.45599034	          0.53672510	          0.46999430	          0.45467686	          0.46080190	          0.39442308	          0.53631599	          0.44726008	          0.56423849	          0.35527189	          0.41756183	          0.49922932	          0.47368741	          0.43722585	          0.42683585	
          0.00400000	         -8.56493050	          0.08979912	          0.76910059	         21.77190540	         21.35044347	        -28.30409379	        -27.98668959	          4.96679369	          3.76981791	         -8.89916263	          0.35792224	          0.45892730	          0.47497650	          0.45139430	          0.54661351	          0.49375558	          0.45185832	          0.47542146	          0.37780293	          0.55391659	          0.45398065	          0.57669875	          0.34121640	          0.40088323	          0.47889989	          0.47375900	          0.42575643	          0.43248455	
          0.00600000	         -8.58473718	          0.11288724	          0.76787182	         21.45619688	         21.07074352	        -29.06301077	        -28.48492332	          4.90200401	          3.95523733	         -8.89869068	          0.34367736	          0.45258078	          0.46130572	          0.46832379	          0.55347497	          0.48928557	          0.45148507	          0.46373175	          0.36256057	          0.56976137	          0.46289462	          0.58832895	          0.32719893	          0.38418665	          0.45741271	          0.48204878	          0.41954789	          0.42718514	
          0.00800000	         -8.58364845	          0.12742763	          0.76427788	         21.22920774	         21.13132096	        -29.53062714	        -28.86199209	          4.76190454	          4.12035253	         -8.89905287	          0.33182657	          0.45877218	          0.44397766	          0.48881631	          0.55655050	          0.46919742	          0.44429510	          0.44394245	          0.35378173	          0.58276437	          0.45933405	          0.59922097	          0.31297461	          0.36845294	          0.43957032	          0.48000838	          0.41822361	          0.41783827	
          0.01000000	         -8.57979321	          0.13627975	          0.76517667	         21.09662020	         21.02583516	        -30.46204673	        -29.33641315	          4.55360063	          4.17499205	         -8.90162097	          0.32397786	          0.47316720	          0.42661123	          0.50791795	          0.55477588	          0.44636062	          0.43543340	          0.42395347	          0.36429432	          0.59319329	          0.44981212	          0.60973522	          0.29880057	          0.35362790	          0.45098244	          0.47719680	          0.43392059	          0.40657043	
          0.01200000	         -8.53718675	          0.14146448	          0.76324029	         21.32066755	         21.01763093	        -30.30111715	        -28.57258491	          4.32990467	          4.20995417	         -8.90707774	          0.31371483	          0.48985047	          0.40749568	          0.52613824	          0.55392819	          0.42325339	          0.42447642	          0.40338604	          0.37623152	          0.59908545	          0.45057248	          0.61686434	          0.28809302	          0.33950621	          0.42776951	          0.48726014	          0.43446536	          0.39565346	
          0.01400000	         -8.41875438	          0.14438434	          0.75735403	         22.17725581	         22.23913579	        -29.78344048	        -26.79450240	          4.02103981	          4.19983387	         -8.91486180	          0.30240521	          0.50403953	          0.38790539	          0.54053702	          0.55354118	          0.40108522	          0.41305669	          0.38340412	          0.36614858	          0.57994629	          0.46319135	          0.61807912	          0.28535161	          0.32811111	          0.40314602	          0.49159975	          0.42119824	          0.38615698	
          0.01600000	         -8.26245918	          0.14596995	          0.75106623	         23.63977455	         24.22106424	        -28.42016322	        -24.02895335	          3.59424188	          4.11618562	         -8.92247810	          0.29873051	          0.49920350	          0.37615029	          0.52467814	          0.54837102	          0.38419298	          0.42982836	          0.37600542	          0.35002166	          0.55424754	          0.46245132	          0.61618881	          0.28377562	          0.33513014	          0.37789576	          0.48785365	          0.43991729	          0.37229603	
          0.01800000	         -8.25393866	          0.14679360	          0.75494449	         23.49413794	         24.40858032	        -30.57949045	        -26.83635107	          3.16192997	          3.86749440	         -8.92685761	          0.33996563	          0.50584711	          0.38973932	          0.50796761	          0.53244677	          0.36192713	          0.45589388	          0.40962916	          0.33317427	          0.52437898	          0.44310523	          0.62373684	          0.27161076	          0.37668933	          0.42089348	          0.47018514	          0.46686130	          0.35310672	
          0.02000000	         -8.36058951	          0.14722487	          0.75952163	         21.90474228	         22.19589921	        -31.26682356	        -29.40054507	          2.68297626	          3.55225953	         -8.92955266	          0.34504282	          0.49422650	          0.41356517	          0.48839228	          0.52695332	          0.39808784	          0.46315999	          0.43637993	          0.31718540	          0.49544030	          0.42549021	          0.62206243	          0.27060977	          0.41325826	          0.45919329	          0.44750599	          0.48119317	          0.33846755	
          0.02200000	         -8.41900175	          0.14748398	          0.76333286	         20.57863419	         21.31344430	        -30.17679909	        -29.45869782	          1.50888277	          3.24495522	         -8.93223344	          0.33322607	          0.47435632	          0.44853293	          0.46472517	          0.53550121	          0.43909835	          0.43767519	          0.41103176	          0.30340245	          0.46992077	          0.41043802	          0.61032000	          0.29313247	          0.44370146	          0.49097505	          0.42401180	          0.45684243	          0.33695048	
          0.02400000	         -8.44933617	          0.14771531	          0.76122197	         19.64627299	         22.39946795	        -26.93734479	        -28.63615037	          0.29706409	          2.85209415	         -8.93714544	          0.37220068	          0.45478432	          0.48244271	          0.44056814	          0.52150916	          0.47471410	          0.41033555	          0.37915965	          0.29483464	          0.44813049	          0.39736561	          0.60645873	          0.29118183	          0.46846569	          0.51753278	          0.39767303	          0.42415613	          0.35949247	
          0.02600000	         -8.49408326	          0.14795069	          0.76091552	         18.88351865	         23.52362425	        -28.25553016	        -27.56308760	          0.07505316	          3.13546398	         -8.94080057	          0.41126175	          0.45963918	          0.50778671	          0.42072981	          0.50180405	          0.45484479	          0.38891642	          0.35557665	          0.33952920	          0.42615726	          0.38653313	          0.58755531	          0.32963038	          0.49025369	          0.53751209	          0.38409317	          0.42372594	          0.35189885	
